<svg xmlns="http://www.w3.org/2000/svg" xmlns:xlink="http://www.w3.org/1999/xlink" width="300" zoomAndPan="magnify" viewBox="0 0 224.87999 74.999997" height="100" preserveAspectRatio="xMidYMid meet" version="1.0"><defs><g/><clipPath id="8b2158d414"><path d="M 29.171875 3.636719 L 90.609375 3.636719 L 90.609375 71.453125 L 29.171875 71.453125 Z M 29.171875 3.636719 " clip-rule="nonzero"/></clipPath></defs><g clip-path="url(#8b2158d414)"><path fill="#f6f3f1" d="M 48.207031 34.253906 C 45.332031 34.070312 42.960938 36.441406 43.140625 39.316406 C 43.292969 41.6875 45.214844 43.613281 47.585938 43.761719 C 50.464844 43.945312 52.832031 41.574219 52.652344 38.699219 C 52.503906 36.328125 50.578125 34.402344 48.207031 34.253906 Z M 90.578125 68.457031 L 90.164062 71.335938 C 88.828125 71.335938 87.695312 71.234375 86.359375 71.132812 C 78.851562 70.617188 74.839844 68.664062 70.316406 62.285156 C 66.507812 57.039062 62.804688 50.558594 59.515625 45.316406 C 58.5625 43.789062 57.765625 42.839844 56.660156 42.257812 C 55.996094 41.910156 55.808594 41.050781 56.28125 40.464844 C 56.503906 40.191406 56.71875 39.910156 56.925781 39.625 C 57.902344 38.277344 59.25 37.246094 60.785156 36.597656 C 61.804688 36.164062 62.707031 35.613281 63.527344 34.925781 C 67.539062 31.941406 69.183594 27.828125 69.183594 22.273438 C 69.183594 11.269531 61.878906 7.257812 53.960938 7.257812 C 50.976562 7.257812 31.425781 7.203125 29.171875 7.136719 L 29.171875 3.660156 L 55.402344 3.660156 C 62.910156 3.660156 67.949219 4.582031 71.859375 7.15625 C 76.074219 9.828125 78.851562 14.457031 78.851562 20.730469 C 78.851562 29.578125 73.195312 35.132812 65.582031 38.421875 C 67.433594 41.613281 71.859375 48.503906 74.941406 53.132812 C 78.75 58.582031 80.703125 61.152344 83.070312 63.726562 C 85.847656 66.707031 88.210938 67.839844 90.578125 68.457031 " fill-opacity="1" fill-rule="nonzero"/></g><g fill="#f6f3f1" fill-opacity="1"><g transform="translate(119.10286, 51.195468)"><g><path d="M 1.46875 0 L 0.578125 0 L 0.578125 -4.859375 L 2.625 -4.859375 C 2.863281 -4.859375 3.085938 -4.816406 3.296875 -4.734375 C 3.503906 -4.648438 3.679688 -4.535156 3.828125 -4.390625 C 3.984375 -4.242188 4.101562 -4.070312 4.1875 -3.875 C 4.269531 -3.675781 4.3125 -3.457031 4.3125 -3.21875 C 4.3125 -2.96875 4.269531 -2.738281 4.1875 -2.53125 C 4.101562 -2.332031 3.984375 -2.15625 3.828125 -2 C 3.679688 -1.851562 3.503906 -1.738281 3.296875 -1.65625 C 3.097656 -1.582031 2.878906 -1.546875 2.640625 -1.546875 L 1.46875 -1.546875 Z M 1.46875 -4.0625 L 1.46875 -2.34375 L 2.59375 -2.34375 C 2.75 -2.34375 2.890625 -2.378906 3.015625 -2.453125 C 3.140625 -2.535156 3.238281 -2.640625 3.3125 -2.765625 C 3.382812 -2.898438 3.421875 -3.050781 3.421875 -3.21875 C 3.421875 -3.363281 3.382812 -3.5 3.3125 -3.625 C 3.238281 -3.757812 3.140625 -3.863281 3.015625 -3.9375 C 2.890625 -4.019531 2.75 -4.0625 2.59375 -4.0625 Z M 1.46875 -4.0625 "/></g></g></g><g fill="#f6f3f1" fill-opacity="1"><g transform="translate(127.178926, 51.195468)"><g><path d="M 2.859375 0.109375 C 2.566406 0.109375 2.289062 0.0664062 2.03125 -0.015625 C 1.769531 -0.109375 1.53125 -0.226562 1.3125 -0.375 C 1.09375 -0.53125 0.898438 -0.710938 0.734375 -0.921875 C 0.578125 -1.140625 0.453125 -1.375 0.359375 -1.625 C 0.273438 -1.882812 0.234375 -2.15625 0.234375 -2.4375 C 0.234375 -2.71875 0.273438 -2.984375 0.359375 -3.234375 C 0.453125 -3.492188 0.578125 -3.726562 0.734375 -3.9375 C 0.898438 -4.144531 1.09375 -4.328125 1.3125 -4.484375 C 1.53125 -4.640625 1.769531 -4.757812 2.03125 -4.84375 C 2.289062 -4.925781 2.566406 -4.96875 2.859375 -4.96875 C 3.140625 -4.96875 3.410156 -4.925781 3.671875 -4.84375 C 3.941406 -4.757812 4.1875 -4.640625 4.40625 -4.484375 C 4.625 -4.328125 4.8125 -4.144531 4.96875 -3.9375 C 5.125 -3.726562 5.242188 -3.492188 5.328125 -3.234375 C 5.421875 -2.984375 5.46875 -2.71875 5.46875 -2.4375 C 5.46875 -2.15625 5.421875 -1.882812 5.328125 -1.625 C 5.242188 -1.375 5.125 -1.140625 4.96875 -0.921875 C 4.8125 -0.710938 4.625 -0.53125 4.40625 -0.375 C 4.1875 -0.226562 3.941406 -0.109375 3.671875 -0.015625 C 3.410156 0.0664062 3.140625 0.109375 2.859375 0.109375 Z M 2.859375 -0.71875 C 3.097656 -0.71875 3.320312 -0.757812 3.53125 -0.84375 C 3.738281 -0.925781 3.921875 -1.046875 4.078125 -1.203125 C 4.242188 -1.359375 4.367188 -1.539062 4.453125 -1.75 C 4.546875 -1.957031 4.59375 -2.1875 4.59375 -2.4375 C 4.59375 -2.675781 4.546875 -2.898438 4.453125 -3.109375 C 4.367188 -3.328125 4.242188 -3.515625 4.078125 -3.671875 C 3.921875 -3.828125 3.738281 -3.945312 3.53125 -4.03125 C 3.320312 -4.113281 3.097656 -4.15625 2.859375 -4.15625 C 2.617188 -4.15625 2.394531 -4.113281 2.1875 -4.03125 C 1.976562 -3.945312 1.789062 -3.828125 1.625 -3.671875 C 1.46875 -3.515625 1.34375 -3.328125 1.25 -3.109375 C 1.164062 -2.898438 1.125 -2.675781 1.125 -2.4375 C 1.125 -2.1875 1.164062 -1.957031 1.25 -1.75 C 1.34375 -1.539062 1.46875 -1.359375 1.625 -1.203125 C 1.789062 -1.046875 1.976562 -0.925781 2.1875 -0.84375 C 2.394531 -0.757812 2.617188 -0.71875 2.859375 -0.71875 Z M 2.859375 -0.71875 "/></g></g></g><g fill="#f6f3f1" fill-opacity="1"><g transform="translate(136.543659, 51.195468)"><g><path d="M 1.46875 0 L 0.578125 0 L 0.578125 -4.859375 L 1.359375 -4.859375 L 3.03125 -2.59375 L 4.71875 -4.859375 L 5.484375 -4.859375 L 5.484375 0 L 4.59375 0 L 4.59375 -3.4375 L 3.140625 -1.453125 L 2.90625 -1.453125 L 1.46875 -3.4375 Z M 1.46875 0 "/></g></g></g><g fill="#f6f3f1" fill-opacity="1"><g transform="translate(146.261791, 51.195468)"><g><path d="M 1.46875 0 L 0.578125 0 L 0.578125 -4.859375 L 2.625 -4.859375 C 2.863281 -4.859375 3.085938 -4.816406 3.296875 -4.734375 C 3.503906 -4.648438 3.679688 -4.535156 3.828125 -4.390625 C 3.984375 -4.242188 4.101562 -4.070312 4.1875 -3.875 C 4.269531 -3.675781 4.3125 -3.457031 4.3125 -3.21875 C 4.3125 -2.96875 4.269531 -2.738281 4.1875 -2.53125 C 4.101562 -2.332031 3.984375 -2.15625 3.828125 -2 C 3.679688 -1.851562 3.503906 -1.738281 3.296875 -1.65625 C 3.097656 -1.582031 2.878906 -1.546875 2.640625 -1.546875 L 1.46875 -1.546875 Z M 1.46875 -4.0625 L 1.46875 -2.34375 L 2.59375 -2.34375 C 2.75 -2.34375 2.890625 -2.378906 3.015625 -2.453125 C 3.140625 -2.535156 3.238281 -2.640625 3.3125 -2.765625 C 3.382812 -2.898438 3.421875 -3.050781 3.421875 -3.21875 C 3.421875 -3.363281 3.382812 -3.5 3.3125 -3.625 C 3.238281 -3.757812 3.140625 -3.863281 3.015625 -3.9375 C 2.890625 -4.019531 2.75 -4.0625 2.59375 -4.0625 Z M 1.46875 -4.0625 "/></g></g></g><g fill="#f6f3f1" fill-opacity="1"><g transform="translate(154.337857, 51.195468)"><g><path d="M 3.9375 0 L 0.578125 0 L 0.578125 -4.859375 L 3.90625 -4.859375 L 3.90625 -4.0625 L 1.46875 -4.0625 L 1.46875 -2.84375 L 3.578125 -2.84375 L 3.578125 -2.09375 L 1.46875 -2.09375 L 1.46875 -0.796875 L 3.9375 -0.796875 Z M 3.9375 0 "/></g></g></g><g fill="#f6f3f1" fill-opacity="1"><g transform="translate(162.164044, 51.195468)"><g><path d="M 2.859375 0.109375 C 2.566406 0.109375 2.289062 0.0664062 2.03125 -0.015625 C 1.769531 -0.109375 1.53125 -0.226562 1.3125 -0.375 C 1.09375 -0.53125 0.898438 -0.710938 0.734375 -0.921875 C 0.578125 -1.140625 0.453125 -1.375 0.359375 -1.625 C 0.273438 -1.882812 0.234375 -2.15625 0.234375 -2.4375 C 0.234375 -2.71875 0.273438 -2.984375 0.359375 -3.234375 C 0.453125 -3.492188 0.578125 -3.726562 0.734375 -3.9375 C 0.898438 -4.144531 1.09375 -4.328125 1.3125 -4.484375 C 1.53125 -4.640625 1.769531 -4.757812 2.03125 -4.84375 C 2.289062 -4.925781 2.566406 -4.96875 2.859375 -4.96875 C 3.140625 -4.96875 3.410156 -4.925781 3.671875 -4.84375 C 3.941406 -4.757812 4.1875 -4.640625 4.40625 -4.484375 C 4.625 -4.328125 4.8125 -4.144531 4.96875 -3.9375 C 5.125 -3.726562 5.242188 -3.492188 5.328125 -3.234375 C 5.421875 -2.984375 5.46875 -2.71875 5.46875 -2.4375 C 5.46875 -2.15625 5.421875 -1.882812 5.328125 -1.625 C 5.242188 -1.375 5.125 -1.140625 4.96875 -0.921875 C 4.8125 -0.710938 4.625 -0.53125 4.40625 -0.375 C 4.1875 -0.226562 3.941406 -0.109375 3.671875 -0.015625 C 3.410156 0.0664062 3.140625 0.109375 2.859375 0.109375 Z M 2.859375 -0.71875 C 3.097656 -0.71875 3.320312 -0.757812 3.53125 -0.84375 C 3.738281 -0.925781 3.921875 -1.046875 4.078125 -1.203125 C 4.242188 -1.359375 4.367188 -1.539062 4.453125 -1.75 C 4.546875 -1.957031 4.59375 -2.1875 4.59375 -2.4375 C 4.59375 -2.675781 4.546875 -2.898438 4.453125 -3.109375 C 4.367188 -3.328125 4.242188 -3.515625 4.078125 -3.671875 C 3.921875 -3.828125 3.738281 -3.945312 3.53125 -4.03125 C 3.320312 -4.113281 3.097656 -4.15625 2.859375 -4.15625 C 2.617188 -4.15625 2.394531 -4.113281 2.1875 -4.03125 C 1.976562 -3.945312 1.789062 -3.828125 1.625 -3.671875 C 1.46875 -3.515625 1.34375 -3.328125 1.25 -3.109375 C 1.164062 -2.898438 1.125 -2.675781 1.125 -2.4375 C 1.125 -2.1875 1.164062 -1.957031 1.25 -1.75 C 1.34375 -1.539062 1.46875 -1.359375 1.625 -1.203125 C 1.789062 -1.046875 1.976562 -0.925781 2.1875 -0.84375 C 2.394531 -0.757812 2.617188 -0.71875 2.859375 -0.71875 Z M 2.859375 -0.71875 "/></g></g></g><g fill="#f6f3f1" fill-opacity="1"><g transform="translate(99.898822, 38.041942)"><g><path d="M 11.40625 -2.640625 L 12.0625 -0.46875 C 11.800781 -0.269531 11.472656 -0.113281 11.078125 0 C 10.679688 0.113281 10.273438 0.171875 9.859375 0.171875 C 9.109375 0.171875 8.453125 0.0195312 7.890625 -0.28125 C 7.328125 -0.59375 6.859375 -1.039062 6.484375 -1.625 L 5.015625 -3.984375 C 4.835938 -4.253906 4.664062 -4.441406 4.5 -4.546875 C 4.332031 -4.660156 4.140625 -4.722656 3.921875 -4.734375 L 3.921875 0 L 1.15625 0 L 1.15625 -12.28125 L 5.1875 -12.28125 C 6.882812 -12.28125 8.15625 -11.9375 9 -11.25 C 9.851562 -10.570312 10.28125 -9.632812 10.28125 -8.4375 C 10.28125 -7.488281 9.988281 -6.710938 9.40625 -6.109375 C 8.820312 -5.515625 8.070312 -5.128906 7.15625 -4.953125 C 7.539062 -4.765625 7.878906 -4.457031 8.171875 -4.03125 L 8.75 -3.125 C 9.125 -2.570312 9.609375 -2.296875 10.203125 -2.296875 C 10.421875 -2.296875 10.628906 -2.320312 10.828125 -2.375 C 11.023438 -2.425781 11.21875 -2.515625 11.40625 -2.640625 Z M 5.03125 -9.984375 L 3.921875 -9.984375 L 3.921875 -6.9375 L 5.015625 -6.9375 C 5.878906 -6.9375 6.5 -7.0625 6.875 -7.3125 C 7.257812 -7.5625 7.453125 -7.945312 7.453125 -8.46875 C 7.453125 -9 7.238281 -9.382812 6.8125 -9.625 C 6.382812 -9.863281 5.789062 -9.984375 5.03125 -9.984375 Z M 5.03125 -9.984375 "/></g></g></g><g fill="#f6f3f1" fill-opacity="1"><g transform="translate(115.575859, 38.041942)"><g><path d="M 9.5625 -9.84375 L 3.921875 -9.84375 L 3.921875 -7.40625 L 9.203125 -7.40625 L 9.203125 -4.96875 L 3.921875 -4.96875 L 3.921875 -2.4375 L 9.734375 -2.4375 L 9.5625 0 L 1.15625 0 L 1.15625 -12.28125 L 9.5625 -12.28125 Z M 9.5625 -9.84375 "/></g></g></g><g fill="#f6f3f1" fill-opacity="1"><g transform="translate(129.920555, 38.041942)"><g><path d="M 7.265625 -6.671875 L 12.5 -6.671875 L 12.5 0 L 10.28125 0 L 10.0625 -1.140625 C 9.675781 -0.671875 9.171875 -0.332031 8.546875 -0.125 C 7.929688 0.0703125 7.285156 0.171875 6.609375 0.171875 C 5.390625 0.171875 4.332031 -0.0664062 3.4375 -0.546875 C 2.539062 -1.035156 1.847656 -1.734375 1.359375 -2.640625 C 0.867188 -3.546875 0.625 -4.628906 0.625 -5.890625 C 0.625 -7.179688 0.898438 -8.320312 1.453125 -9.3125 C 2.015625 -10.300781 2.804688 -11.070312 3.828125 -11.625 C 4.859375 -12.175781 6.066406 -12.453125 7.453125 -12.453125 C 8.617188 -12.453125 9.601562 -12.242188 10.40625 -11.828125 C 11.207031 -11.421875 11.878906 -10.804688 12.421875 -9.984375 L 10.25 -8.40625 C 9.96875 -8.925781 9.570312 -9.300781 9.0625 -9.53125 C 8.550781 -9.769531 8.015625 -9.890625 7.453125 -9.890625 C 6.648438 -9.890625 5.957031 -9.722656 5.375 -9.390625 C 4.800781 -9.066406 4.351562 -8.609375 4.03125 -8.015625 C 3.71875 -7.421875 3.5625 -6.734375 3.5625 -5.953125 C 3.5625 -4.804688 3.859375 -3.921875 4.453125 -3.296875 C 5.054688 -2.679688 5.882812 -2.375 6.9375 -2.375 C 7.351562 -2.375 7.765625 -2.441406 8.171875 -2.578125 C 8.585938 -2.722656 8.941406 -2.945312 9.234375 -3.25 C 9.535156 -3.550781 9.710938 -3.925781 9.765625 -4.375 L 7.265625 -4.375 Z M 7.265625 -6.671875 "/></g></g></g><g fill="#f6f3f1" fill-opacity="1"><g transform="translate(147.535541, 38.041942)"><g><path d="M 1.15625 0 L 1.15625 -12.28125 L 3.984375 -12.28125 L 3.984375 0 Z M 1.15625 0 "/></g></g></g><g fill="#f6f3f1" fill-opacity="1"><g transform="translate(157.000752, 38.041942)"><g><path d="M 9.109375 -12.28125 L 11.828125 -12.28125 L 11.828125 0 L 9.328125 0 L 3.875 -7.625 L 3.875 0 L 1.15625 0 L 1.15625 -12.28125 L 3.671875 -12.28125 L 9.109375 -4.65625 Z M 9.109375 -12.28125 "/></g></g></g><g fill="#f6f3f1" fill-opacity="1"><g transform="translate(174.321585, 38.041942)"><g><path d="M -0.421875 0 L 4.90625 -12.28125 L 7.28125 -12.28125 L 12.40625 0 L 9.53125 0 L 8.546875 -2.515625 L 3.484375 -2.515625 L 2.453125 0 Z M 4.4375 -4.859375 L 7.609375 -4.859375 L 6.046875 -8.828125 Z M 4.4375 -4.859375 "/></g></g></g></svg>