<svg xmlns="http://www.w3.org/2000/svg" xmlns:xlink="http://www.w3.org/1999/xlink" width="300" zoomAndPan="magnify" viewBox="0 0 224.87999 74.999997" height="100" preserveAspectRatio="xMidYMid meet" version="1.2"><defs><clipPath id="2d3126a0f9"><path d="M 13.128906 3.636719 L 74.597656 3.636719 L 74.597656 71.101562 L 13.128906 71.101562 Z M 13.128906 3.636719 "/></clipPath></defs><g id="c3630c9688"><g clip-rule="nonzero" clip-path="url(#2d3126a0f9)"><path style=" stroke:none;fill-rule:nonzero;fill:#f6f3f1;fill-opacity:1;" d="M 32.089844 34.136719 C 29.226562 33.957031 26.863281 36.316406 27.046875 39.183594 C 27.195312 41.542969 29.113281 43.460938 31.472656 43.609375 C 34.335938 43.792969 36.699219 41.429688 36.519531 38.566406 C 36.367188 36.203125 34.453125 34.285156 32.089844 34.136719 Z M 74.292969 68.207031 L 73.882812 71.074219 C 72.550781 71.074219 71.425781 70.972656 70.09375 70.871094 C 62.613281 70.355469 58.617188 68.410156 54.109375 62.058594 C 50.320312 56.832031 46.632812 50.378906 43.355469 45.15625 C 42.40625 43.636719 41.609375 42.691406 40.511719 42.113281 C 39.847656 41.761719 39.664062 40.90625 40.132812 40.324219 C 40.355469 40.050781 40.566406 39.769531 40.773438 39.488281 C 41.746094 38.144531 43.089844 37.121094 44.617188 36.472656 C 45.636719 36.042969 46.535156 35.492188 47.347656 34.808594 C 51.34375 31.835938 52.984375 27.738281 52.984375 22.207031 C 52.984375 11.246094 45.710938 7.25 37.820312 7.25 C 34.851562 7.25 15.375 7.195312 13.132812 7.128906 L 13.132812 3.664062 L 39.253906 3.664062 C 46.734375 3.664062 51.753906 4.585938 55.648438 7.144531 C 59.847656 9.808594 62.613281 14.421875 62.613281 20.667969 C 62.613281 29.480469 56.980469 35.011719 49.398438 38.292969 C 51.242188 41.464844 55.648438 48.332031 58.722656 52.941406 C 62.511719 58.371094 64.457031 60.933594 66.8125 63.492188 C 69.582031 66.464844 71.9375 67.589844 74.292969 68.207031 "/></g><g style="fill:#f6f3f1;fill-opacity:1;"><g transform="translate(85.624034, 52.260398)"><path style="stroke:none" d="M 3.46875 0 L 1.375 0 L 1.375 -11.484375 L 6.203125 -11.484375 C 6.785156 -11.484375 7.316406 -11.382812 7.796875 -11.1875 C 8.285156 -11 8.707031 -10.734375 9.0625 -10.390625 C 9.425781 -10.046875 9.703125 -9.632812 9.890625 -9.15625 C 10.085938 -8.6875 10.1875 -8.175781 10.1875 -7.625 C 10.1875 -7.03125 10.085938 -6.488281 9.890625 -6 C 9.703125 -5.519531 9.429688 -5.101562 9.078125 -4.75 C 8.734375 -4.40625 8.316406 -4.140625 7.828125 -3.953125 C 7.347656 -3.765625 6.816406 -3.671875 6.234375 -3.671875 L 3.46875 -3.671875 Z M 3.46875 -9.609375 L 3.46875 -5.546875 L 6.140625 -5.546875 C 6.503906 -5.546875 6.832031 -5.632812 7.125 -5.8125 C 7.425781 -6 7.660156 -6.25 7.828125 -6.5625 C 8.003906 -6.875 8.09375 -7.226562 8.09375 -7.625 C 8.09375 -7.96875 8.003906 -8.289062 7.828125 -8.59375 C 7.648438 -8.894531 7.414062 -9.140625 7.125 -9.328125 C 6.832031 -9.515625 6.5 -9.609375 6.125 -9.609375 Z M 3.46875 -9.609375 "/></g></g><g style="fill:#f6f3f1;fill-opacity:1;"><g transform="translate(104.735344, 52.260398)"><path style="stroke:none" d="M 6.75 0.25 C 6.0625 0.25 5.410156 0.148438 4.796875 -0.046875 C 4.179688 -0.253906 3.613281 -0.539062 3.09375 -0.90625 C 2.582031 -1.269531 2.132812 -1.703125 1.75 -2.203125 C 1.375 -2.703125 1.082031 -3.253906 0.875 -3.859375 C 0.664062 -4.460938 0.5625 -5.097656 0.5625 -5.765625 C 0.5625 -6.429688 0.664062 -7.0625 0.875 -7.65625 C 1.082031 -8.257812 1.375 -8.8125 1.75 -9.3125 C 2.132812 -9.8125 2.582031 -10.242188 3.09375 -10.609375 C 3.613281 -10.972656 4.179688 -11.253906 4.796875 -11.453125 C 5.410156 -11.648438 6.0625 -11.75 6.75 -11.75 C 7.425781 -11.75 8.070312 -11.648438 8.6875 -11.453125 C 9.3125 -11.253906 9.882812 -10.972656 10.40625 -10.609375 C 10.925781 -10.242188 11.375 -9.8125 11.75 -9.3125 C 12.132812 -8.8125 12.429688 -8.257812 12.640625 -7.65625 C 12.847656 -7.0625 12.953125 -6.429688 12.953125 -5.765625 C 12.953125 -5.097656 12.847656 -4.460938 12.640625 -3.859375 C 12.429688 -3.253906 12.132812 -2.703125 11.75 -2.203125 C 11.375 -1.703125 10.925781 -1.269531 10.40625 -0.90625 C 9.882812 -0.539062 9.316406 -0.253906 8.703125 -0.046875 C 8.085938 0.148438 7.4375 0.25 6.75 0.25 Z M 6.75 -1.6875 C 7.3125 -1.6875 7.84375 -1.785156 8.34375 -1.984375 C 8.84375 -2.191406 9.28125 -2.476562 9.65625 -2.84375 C 10.03125 -3.207031 10.320312 -3.632812 10.53125 -4.125 C 10.75 -4.625 10.859375 -5.164062 10.859375 -5.75 C 10.859375 -6.332031 10.75 -6.875 10.53125 -7.375 C 10.320312 -7.875 10.03125 -8.304688 9.65625 -8.671875 C 9.28125 -9.035156 8.84375 -9.316406 8.34375 -9.515625 C 7.84375 -9.722656 7.3125 -9.828125 6.75 -9.828125 C 6.1875 -9.828125 5.65625 -9.722656 5.15625 -9.515625 C 4.664062 -9.316406 4.234375 -9.03125 3.859375 -8.65625 C 3.484375 -8.289062 3.1875 -7.859375 2.96875 -7.359375 C 2.757812 -6.867188 2.65625 -6.332031 2.65625 -5.75 C 2.65625 -5.164062 2.757812 -4.625 2.96875 -4.125 C 3.1875 -3.632812 3.484375 -3.207031 3.859375 -2.84375 C 4.234375 -2.476562 4.664062 -2.191406 5.15625 -1.984375 C 5.65625 -1.785156 6.1875 -1.6875 6.75 -1.6875 Z M 6.75 -1.6875 "/></g></g><g style="fill:#f6f3f1;fill-opacity:1;"><g transform="translate(126.89601, 52.260398)"><path style="stroke:none" d="M 3.46875 0 L 1.375 0 L 1.375 -11.484375 L 3.203125 -11.484375 L 7.15625 -6.125 L 11.140625 -11.484375 L 12.984375 -11.484375 L 12.984375 0 L 10.875 0 L 10.875 -8.109375 L 7.4375 -3.421875 L 6.875 -3.421875 L 3.46875 -8.140625 Z M 3.46875 0 "/></g></g><g style="fill:#f6f3f1;fill-opacity:1;"><g transform="translate(149.892918, 52.260398)"><path style="stroke:none" d="M 3.46875 0 L 1.375 0 L 1.375 -11.484375 L 6.203125 -11.484375 C 6.785156 -11.484375 7.316406 -11.382812 7.796875 -11.1875 C 8.285156 -11 8.707031 -10.734375 9.0625 -10.390625 C 9.425781 -10.046875 9.703125 -9.632812 9.890625 -9.15625 C 10.085938 -8.6875 10.1875 -8.175781 10.1875 -7.625 C 10.1875 -7.03125 10.085938 -6.488281 9.890625 -6 C 9.703125 -5.519531 9.429688 -5.101562 9.078125 -4.75 C 8.734375 -4.40625 8.316406 -4.140625 7.828125 -3.953125 C 7.347656 -3.765625 6.816406 -3.671875 6.234375 -3.671875 L 3.46875 -3.671875 Z M 3.46875 -9.609375 L 3.46875 -5.546875 L 6.140625 -5.546875 C 6.503906 -5.546875 6.832031 -5.632812 7.125 -5.8125 C 7.425781 -6 7.660156 -6.25 7.828125 -6.5625 C 8.003906 -6.875 8.09375 -7.226562 8.09375 -7.625 C 8.09375 -7.96875 8.003906 -8.289062 7.828125 -8.59375 C 7.648438 -8.894531 7.414062 -9.140625 7.125 -9.328125 C 6.832031 -9.515625 6.5 -9.609375 6.125 -9.609375 Z M 3.46875 -9.609375 "/></g></g><g style="fill:#f6f3f1;fill-opacity:1;"><g transform="translate(169.004228, 52.260398)"><path style="stroke:none" d="M 9.3125 0 L 1.375 0 L 1.375 -11.484375 L 9.234375 -11.484375 L 9.234375 -9.609375 L 3.46875 -9.609375 L 3.46875 -6.71875 L 8.453125 -6.71875 L 8.453125 -4.953125 L 3.46875 -4.953125 L 3.46875 -1.890625 L 9.3125 -1.890625 Z M 9.3125 0 "/></g></g><g style="fill:#f6f3f1;fill-opacity:1;"><g transform="translate(187.524251, 52.260398)"><path style="stroke:none" d="M 6.75 0.25 C 6.0625 0.25 5.410156 0.148438 4.796875 -0.046875 C 4.179688 -0.253906 3.613281 -0.539062 3.09375 -0.90625 C 2.582031 -1.269531 2.132812 -1.703125 1.75 -2.203125 C 1.375 -2.703125 1.082031 -3.253906 0.875 -3.859375 C 0.664062 -4.460938 0.5625 -5.097656 0.5625 -5.765625 C 0.5625 -6.429688 0.664062 -7.0625 0.875 -7.65625 C 1.082031 -8.257812 1.375 -8.8125 1.75 -9.3125 C 2.132812 -9.8125 2.582031 -10.242188 3.09375 -10.609375 C 3.613281 -10.972656 4.179688 -11.253906 4.796875 -11.453125 C 5.410156 -11.648438 6.0625 -11.75 6.75 -11.75 C 7.425781 -11.75 8.070312 -11.648438 8.6875 -11.453125 C 9.3125 -11.253906 9.882812 -10.972656 10.40625 -10.609375 C 10.925781 -10.242188 11.375 -9.8125 11.75 -9.3125 C 12.132812 -8.8125 12.429688 -8.257812 12.640625 -7.65625 C 12.847656 -7.0625 12.953125 -6.429688 12.953125 -5.765625 C 12.953125 -5.097656 12.847656 -4.460938 12.640625 -3.859375 C 12.429688 -3.253906 12.132812 -2.703125 11.75 -2.203125 C 11.375 -1.703125 10.925781 -1.269531 10.40625 -0.90625 C 9.882812 -0.539062 9.316406 -0.253906 8.703125 -0.046875 C 8.085938 0.148438 7.4375 0.25 6.75 0.25 Z M 6.75 -1.6875 C 7.3125 -1.6875 7.84375 -1.785156 8.34375 -1.984375 C 8.84375 -2.191406 9.28125 -2.476562 9.65625 -2.84375 C 10.03125 -3.207031 10.320312 -3.632812 10.53125 -4.125 C 10.75 -4.625 10.859375 -5.164062 10.859375 -5.75 C 10.859375 -6.332031 10.75 -6.875 10.53125 -7.375 C 10.320312 -7.875 10.03125 -8.304688 9.65625 -8.671875 C 9.28125 -9.035156 8.84375 -9.316406 8.34375 -9.515625 C 7.84375 -9.722656 7.3125 -9.828125 6.75 -9.828125 C 6.1875 -9.828125 5.65625 -9.722656 5.15625 -9.515625 C 4.664062 -9.316406 4.234375 -9.03125 3.859375 -8.65625 C 3.484375 -8.289062 3.1875 -7.859375 2.96875 -7.359375 C 2.757812 -6.867188 2.65625 -6.332031 2.65625 -5.75 C 2.65625 -5.164062 2.757812 -4.625 2.96875 -4.125 C 3.1875 -3.632812 3.484375 -3.207031 3.859375 -2.84375 C 4.234375 -2.476562 4.664062 -2.191406 5.15625 -1.984375 C 5.65625 -1.785156 6.1875 -1.6875 6.75 -1.6875 Z M 6.75 -1.6875 "/></g></g><g style="fill:#f6f3f1;fill-opacity:1;"><g transform="translate(85.111583, 32.334136)"><path style="stroke:none" d="M 15.359375 -3.5625 L 16.234375 -0.625 C 15.890625 -0.363281 15.453125 -0.15625 14.921875 0 C 14.390625 0.15625 13.84375 0.234375 13.28125 0.234375 C 12.269531 0.234375 11.382812 0.03125 10.625 -0.375 C 9.863281 -0.789062 9.234375 -1.394531 8.734375 -2.1875 L 6.75 -5.359375 C 6.519531 -5.734375 6.289062 -5.992188 6.0625 -6.140625 C 5.84375 -6.285156 5.582031 -6.367188 5.28125 -6.390625 L 5.28125 0 L 1.5625 0 L 1.5625 -16.546875 L 6.984375 -16.546875 C 9.265625 -16.546875 10.976562 -16.085938 12.125 -15.171875 C 13.269531 -14.253906 13.84375 -12.988281 13.84375 -11.375 C 13.84375 -10.09375 13.445312 -9.046875 12.65625 -8.234375 C 11.875 -7.429688 10.867188 -6.90625 9.640625 -6.65625 C 10.148438 -6.414062 10.601562 -6.003906 11 -5.421875 L 11.78125 -4.21875 C 12.28125 -3.46875 12.9375 -3.09375 13.75 -3.09375 C 14.039062 -3.09375 14.316406 -3.128906 14.578125 -3.203125 C 14.847656 -3.273438 15.109375 -3.394531 15.359375 -3.5625 Z M 6.78125 -13.4375 L 5.28125 -13.4375 L 5.28125 -9.34375 L 6.75 -9.34375 C 7.914062 -9.34375 8.753906 -9.507812 9.265625 -9.84375 C 9.785156 -10.175781 10.046875 -10.703125 10.046875 -11.421875 C 10.046875 -12.128906 9.753906 -12.640625 9.171875 -12.953125 C 8.597656 -13.273438 7.800781 -13.4375 6.78125 -13.4375 Z M 6.78125 -13.4375 "/></g></g><g style="fill:#f6f3f1;fill-opacity:1;"><g transform="translate(106.219199, 32.334136)"><path style="stroke:none" d="M 12.890625 -13.25 L 5.28125 -13.25 L 5.28125 -9.96875 L 12.390625 -9.96875 L 12.390625 -6.6875 L 5.28125 -6.6875 L 5.28125 -3.28125 L 13.109375 -3.28125 L 12.890625 0 L 1.5625 0 L 1.5625 -16.546875 L 12.890625 -16.546875 Z M 12.890625 -13.25 "/></g></g><g style="fill:#f6f3f1;fill-opacity:1;"><g transform="translate(125.533007, 32.334136)"><path style="stroke:none" d="M 9.78125 -9 L 16.84375 -9 L 16.84375 0 L 13.84375 0 L 13.5625 -1.53125 C 13.03125 -0.894531 12.347656 -0.441406 11.515625 -0.171875 C 10.691406 0.0976562 9.820312 0.234375 8.90625 0.234375 C 7.257812 0.234375 5.832031 -0.0859375 4.625 -0.734375 C 3.414062 -1.390625 2.484375 -2.328125 1.828125 -3.546875 C 1.171875 -4.765625 0.84375 -6.226562 0.84375 -7.9375 C 0.84375 -9.675781 1.21875 -11.207031 1.96875 -12.53125 C 2.71875 -13.863281 3.785156 -14.90625 5.171875 -15.65625 C 6.554688 -16.40625 8.179688 -16.78125 10.046875 -16.78125 C 11.609375 -16.78125 12.925781 -16.503906 14 -15.953125 C 15.082031 -15.398438 15.992188 -14.5625 16.734375 -13.4375 L 13.8125 -11.328125 C 13.425781 -12.023438 12.890625 -12.53125 12.203125 -12.84375 C 11.523438 -13.164062 10.804688 -13.328125 10.046875 -13.328125 C 8.953125 -13.328125 8.015625 -13.101562 7.234375 -12.65625 C 6.460938 -12.21875 5.863281 -11.597656 5.4375 -10.796875 C 5.007812 -9.992188 4.796875 -9.066406 4.796875 -8.015625 C 4.796875 -6.472656 5.195312 -5.28125 6 -4.4375 C 6.8125 -3.601562 7.925781 -3.1875 9.34375 -3.1875 C 9.90625 -3.1875 10.460938 -3.285156 11.015625 -3.484375 C 11.578125 -3.679688 12.054688 -3.976562 12.453125 -4.375 C 12.847656 -4.78125 13.082031 -5.285156 13.15625 -5.890625 L 9.78125 -5.890625 Z M 9.78125 -9 "/></g></g><g style="fill:#f6f3f1;fill-opacity:1;"><g transform="translate(149.249788, 32.334136)"><path style="stroke:none" d="M 1.5625 0 L 1.5625 -16.546875 L 5.359375 -16.546875 L 5.359375 0 Z M 1.5625 0 "/></g></g><g style="fill:#f6f3f1;fill-opacity:1;"><g transform="translate(161.994085, 32.334136)"><path style="stroke:none" d="M 12.28125 -16.546875 L 15.9375 -16.546875 L 15.9375 0 L 12.5625 0 L 5.21875 -10.28125 L 5.21875 0 L 1.5625 0 L 1.5625 -16.546875 L 4.9375 -16.546875 L 12.28125 -6.265625 Z M 12.28125 -16.546875 "/></g></g><g style="fill:#f6f3f1;fill-opacity:1;"><g transform="translate(185.314837, 32.334136)"><path style="stroke:none" d="M -0.5625 0 L 6.609375 -16.546875 L 9.8125 -16.546875 L 16.703125 0 L 12.84375 0 L 11.515625 -3.375 L 4.6875 -3.375 L 3.3125 0 Z M 5.984375 -6.546875 L 10.25 -6.546875 L 8.15625 -11.875 Z M 5.984375 -6.546875 "/></g></g></g></svg>