<svg xmlns="http://www.w3.org/2000/svg" xmlns:xlink="http://www.w3.org/1999/xlink" width="500" zoomAndPan="magnify" viewBox="0 0 375 374.999991" height="500" preserveAspectRatio="xMidYMid meet" version="1.0"><defs><g/><clipPath id="3c20ad8ab5"><path d="M 2.960938 111.851562 L 140.210938 111.851562 L 140.210938 263.351562 L 2.960938 263.351562 Z M 2.960938 111.851562 " clip-rule="nonzero"/></clipPath></defs><g clip-path="url(#3c20ad8ab5)"><path fill="#f6f3f1" d="M 45.484375 180.25 C 39.058594 179.839844 33.765625 185.136719 34.171875 191.5625 C 34.503906 196.859375 38.804688 201.15625 44.101562 201.492188 C 50.523438 201.898438 55.820312 196.601562 55.414062 190.179688 C 55.082031 184.882812 50.78125 180.582031 45.484375 180.25 Z M 140.140625 256.65625 L 139.21875 263.089844 C 136.234375 263.089844 133.707031 262.859375 130.71875 262.632812 C 113.945312 261.480469 104.984375 257.117188 94.875 242.871094 C 86.371094 231.152344 78.097656 216.675781 70.746094 204.957031 C 68.617188 201.554688 66.835938 199.429688 64.371094 198.132812 C 62.886719 197.351562 62.46875 195.429688 63.523438 194.125 C 64.019531 193.507812 64.5 192.882812 64.960938 192.246094 C 67.144531 189.238281 70.160156 186.9375 73.582031 185.484375 C 75.863281 184.515625 77.878906 183.285156 79.707031 181.75 C 88.667969 175.085938 92.34375 165.894531 92.34375 153.488281 C 92.34375 128.902344 76.03125 119.9375 58.339844 119.9375 C 51.675781 119.9375 7.992188 119.820312 2.964844 119.671875 L 2.964844 111.898438 L 61.554688 111.898438 C 78.328125 111.898438 89.589844 113.964844 98.320312 119.710938 C 107.742188 125.683594 113.945312 136.023438 113.945312 150.039062 C 113.945312 169.800781 101.308594 182.210938 84.304688 189.5625 C 88.4375 196.683594 98.320312 212.082031 105.214844 222.417969 C 113.714844 234.597656 118.082031 240.34375 123.363281 246.085938 C 129.570312 252.75 134.855469 255.277344 140.140625 256.65625 " fill-opacity="1" fill-rule="nonzero"/></g><g fill="#f6f3f1" fill-opacity="1"><g transform="translate(201.612339, 218.09547)"><g><path d="M 3.28125 0 L 1.296875 0 L 1.296875 -10.859375 L 5.859375 -10.859375 C 6.410156 -10.859375 6.914062 -10.765625 7.375 -10.578125 C 7.832031 -10.398438 8.226562 -10.144531 8.5625 -9.8125 C 8.90625 -9.488281 9.164062 -9.101562 9.34375 -8.65625 C 9.53125 -8.207031 9.625 -7.722656 9.625 -7.203125 C 9.625 -6.640625 9.53125 -6.128906 9.34375 -5.671875 C 9.164062 -5.210938 8.910156 -4.816406 8.578125 -4.484375 C 8.242188 -4.160156 7.847656 -3.910156 7.390625 -3.734375 C 6.941406 -3.554688 6.441406 -3.46875 5.890625 -3.46875 L 3.28125 -3.46875 Z M 3.28125 -9.078125 L 3.28125 -5.234375 L 5.796875 -5.234375 C 6.148438 -5.234375 6.460938 -5.316406 6.734375 -5.484375 C 7.015625 -5.660156 7.234375 -5.894531 7.390625 -6.1875 C 7.554688 -6.488281 7.640625 -6.828125 7.640625 -7.203125 C 7.640625 -7.523438 7.554688 -7.832031 7.390625 -8.125 C 7.234375 -8.414062 7.015625 -8.644531 6.734375 -8.8125 C 6.453125 -8.988281 6.132812 -9.078125 5.78125 -9.078125 Z M 3.28125 -9.078125 "/></g></g></g><g fill="#f6f3f1" fill-opacity="1"><g transform="translate(219.654156, 218.09547)"><g><path d="M 6.375 0.234375 C 5.726562 0.234375 5.113281 0.140625 4.53125 -0.046875 C 3.945312 -0.234375 3.410156 -0.5 2.921875 -0.84375 C 2.429688 -1.195312 2.007812 -1.609375 1.65625 -2.078125 C 1.300781 -2.554688 1.023438 -3.078125 0.828125 -3.640625 C 0.628906 -4.210938 0.53125 -4.8125 0.53125 -5.4375 C 0.53125 -6.070312 0.628906 -6.671875 0.828125 -7.234375 C 1.023438 -7.804688 1.300781 -8.328125 1.65625 -8.796875 C 2.007812 -9.265625 2.429688 -9.671875 2.921875 -10.015625 C 3.410156 -10.367188 3.945312 -10.640625 4.53125 -10.828125 C 5.113281 -11.015625 5.726562 -11.109375 6.375 -11.109375 C 7.019531 -11.109375 7.632812 -11.015625 8.21875 -10.828125 C 8.800781 -10.640625 9.335938 -10.367188 9.828125 -10.015625 C 10.316406 -9.671875 10.738281 -9.265625 11.09375 -8.796875 C 11.457031 -8.328125 11.738281 -7.804688 11.9375 -7.234375 C 12.132812 -6.671875 12.234375 -6.070312 12.234375 -5.4375 C 12.234375 -4.8125 12.132812 -4.210938 11.9375 -3.640625 C 11.738281 -3.078125 11.457031 -2.554688 11.09375 -2.078125 C 10.738281 -1.609375 10.316406 -1.195312 9.828125 -0.84375 C 9.335938 -0.5 8.800781 -0.234375 8.21875 -0.046875 C 7.632812 0.140625 7.019531 0.234375 6.375 0.234375 Z M 6.375 -1.59375 C 6.914062 -1.59375 7.421875 -1.6875 7.890625 -1.875 C 8.359375 -2.070312 8.769531 -2.34375 9.125 -2.6875 C 9.476562 -3.03125 9.753906 -3.4375 9.953125 -3.90625 C 10.148438 -4.375 10.25 -4.882812 10.25 -5.4375 C 10.25 -5.988281 10.148438 -6.5 9.953125 -6.96875 C 9.753906 -7.4375 9.476562 -7.84375 9.125 -8.1875 C 8.769531 -8.539062 8.359375 -8.8125 7.890625 -9 C 7.421875 -9.195312 6.914062 -9.296875 6.375 -9.296875 C 5.84375 -9.296875 5.34375 -9.195312 4.875 -9 C 4.40625 -8.8125 3.992188 -8.539062 3.640625 -8.1875 C 3.285156 -7.84375 3.007812 -7.4375 2.8125 -6.96875 C 2.613281 -6.5 2.515625 -5.988281 2.515625 -5.4375 C 2.515625 -4.882812 2.613281 -4.375 2.8125 -3.90625 C 3.007812 -3.4375 3.285156 -3.03125 3.640625 -2.6875 C 3.992188 -2.34375 4.40625 -2.070312 4.875 -1.875 C 5.34375 -1.6875 5.84375 -1.59375 6.375 -1.59375 Z M 6.375 -1.59375 "/></g></g></g><g fill="#f6f3f1" fill-opacity="1"><g transform="translate(240.574834, 218.09547)"><g><path d="M 3.28125 0 L 1.296875 0 L 1.296875 -10.859375 L 3.03125 -10.859375 L 6.765625 -5.796875 L 10.53125 -10.859375 L 12.265625 -10.859375 L 12.265625 0 L 10.28125 0 L 10.28125 -7.671875 L 7.03125 -3.234375 L 6.5 -3.234375 L 3.28125 -7.6875 Z M 3.28125 0 "/></g></g></g><g fill="#f6f3f1" fill-opacity="1"><g transform="translate(262.285002, 218.09547)"><g><path d="M 3.28125 0 L 1.296875 0 L 1.296875 -10.859375 L 5.859375 -10.859375 C 6.410156 -10.859375 6.914062 -10.765625 7.375 -10.578125 C 7.832031 -10.398438 8.226562 -10.144531 8.5625 -9.8125 C 8.90625 -9.488281 9.164062 -9.101562 9.34375 -8.65625 C 9.53125 -8.207031 9.625 -7.722656 9.625 -7.203125 C 9.625 -6.640625 9.53125 -6.128906 9.34375 -5.671875 C 9.164062 -5.210938 8.910156 -4.816406 8.578125 -4.484375 C 8.242188 -4.160156 7.847656 -3.910156 7.390625 -3.734375 C 6.941406 -3.554688 6.441406 -3.46875 5.890625 -3.46875 L 3.28125 -3.46875 Z M 3.28125 -9.078125 L 3.28125 -5.234375 L 5.796875 -5.234375 C 6.148438 -5.234375 6.460938 -5.316406 6.734375 -5.484375 C 7.015625 -5.660156 7.234375 -5.894531 7.390625 -6.1875 C 7.554688 -6.488281 7.640625 -6.828125 7.640625 -7.203125 C 7.640625 -7.523438 7.554688 -7.832031 7.390625 -8.125 C 7.234375 -8.414062 7.015625 -8.644531 6.734375 -8.8125 C 6.453125 -8.988281 6.132812 -9.078125 5.78125 -9.078125 Z M 3.28125 -9.078125 "/></g></g></g><g fill="#f6f3f1" fill-opacity="1"><g transform="translate(280.326819, 218.09547)"><g><path d="M 8.796875 0 L 1.296875 0 L 1.296875 -10.859375 L 8.734375 -10.859375 L 8.734375 -9.078125 L 3.28125 -9.078125 L 3.28125 -6.359375 L 7.984375 -6.359375 L 7.984375 -4.671875 L 3.28125 -4.671875 L 3.28125 -1.78125 L 8.796875 -1.78125 Z M 8.796875 0 "/></g></g></g><g fill="#f6f3f1" fill-opacity="1"><g transform="translate(297.810409, 218.09547)"><g><path d="M 6.375 0.234375 C 5.726562 0.234375 5.113281 0.140625 4.53125 -0.046875 C 3.945312 -0.234375 3.410156 -0.5 2.921875 -0.84375 C 2.429688 -1.195312 2.007812 -1.609375 1.65625 -2.078125 C 1.300781 -2.554688 1.023438 -3.078125 0.828125 -3.640625 C 0.628906 -4.210938 0.53125 -4.8125 0.53125 -5.4375 C 0.53125 -6.070312 0.628906 -6.671875 0.828125 -7.234375 C 1.023438 -7.804688 1.300781 -8.328125 1.65625 -8.796875 C 2.007812 -9.265625 2.429688 -9.671875 2.921875 -10.015625 C 3.410156 -10.367188 3.945312 -10.640625 4.53125 -10.828125 C 5.113281 -11.015625 5.726562 -11.109375 6.375 -11.109375 C 7.019531 -11.109375 7.632812 -11.015625 8.21875 -10.828125 C 8.800781 -10.640625 9.335938 -10.367188 9.828125 -10.015625 C 10.316406 -9.671875 10.738281 -9.265625 11.09375 -8.796875 C 11.457031 -8.328125 11.738281 -7.804688 11.9375 -7.234375 C 12.132812 -6.671875 12.234375 -6.070312 12.234375 -5.4375 C 12.234375 -4.8125 12.132812 -4.210938 11.9375 -3.640625 C 11.738281 -3.078125 11.457031 -2.554688 11.09375 -2.078125 C 10.738281 -1.609375 10.316406 -1.195312 9.828125 -0.84375 C 9.335938 -0.5 8.800781 -0.234375 8.21875 -0.046875 C 7.632812 0.140625 7.019531 0.234375 6.375 0.234375 Z M 6.375 -1.59375 C 6.914062 -1.59375 7.421875 -1.6875 7.890625 -1.875 C 8.359375 -2.070312 8.769531 -2.34375 9.125 -2.6875 C 9.476562 -3.03125 9.753906 -3.4375 9.953125 -3.90625 C 10.148438 -4.375 10.25 -4.882812 10.25 -5.4375 C 10.25 -5.988281 10.148438 -6.5 9.953125 -6.96875 C 9.753906 -7.4375 9.476562 -7.84375 9.125 -8.1875 C 8.769531 -8.539062 8.359375 -8.8125 7.890625 -9 C 7.421875 -9.195312 6.914062 -9.296875 6.375 -9.296875 C 5.84375 -9.296875 5.34375 -9.195312 4.875 -9 C 4.40625 -8.8125 3.992188 -8.539062 3.640625 -8.1875 C 3.285156 -7.84375 3.007812 -7.4375 2.8125 -6.96875 C 2.613281 -6.5 2.515625 -5.988281 2.515625 -5.4375 C 2.515625 -4.882812 2.613281 -4.375 2.8125 -3.90625 C 3.007812 -3.4375 3.285156 -3.03125 3.640625 -2.6875 C 3.992188 -2.34375 4.40625 -2.070312 4.875 -1.875 C 5.34375 -1.6875 5.84375 -1.59375 6.375 -1.59375 Z M 6.375 -1.59375 "/></g></g></g><g fill="#f6f3f1" fill-opacity="1"><g transform="translate(159.486393, 188.710697)"><g><path d="M 25.46875 -5.921875 L 26.9375 -1.046875 C 26.375 -0.609375 25.644531 -0.257812 24.75 0 C 23.863281 0.257812 22.957031 0.390625 22.03125 0.390625 C 20.351562 0.390625 18.882812 0.0507812 17.625 -0.625 C 16.363281 -1.3125 15.320312 -2.316406 14.5 -3.640625 L 11.203125 -8.890625 C 10.816406 -9.503906 10.4375 -9.929688 10.0625 -10.171875 C 9.695312 -10.421875 9.269531 -10.5625 8.78125 -10.59375 L 8.78125 0 L 2.59375 0 L 2.59375 -27.453125 L 11.59375 -27.453125 C 15.382812 -27.453125 18.226562 -26.691406 20.125 -25.171875 C 22.019531 -23.648438 22.96875 -21.546875 22.96875 -18.859375 C 22.96875 -16.742188 22.316406 -15.015625 21.015625 -13.671875 C 19.710938 -12.335938 18.039062 -11.46875 16 -11.0625 C 16.851562 -10.644531 17.601562 -9.957031 18.25 -9 L 19.5625 -7 C 20.382812 -5.757812 21.46875 -5.140625 22.8125 -5.140625 C 23.300781 -5.140625 23.765625 -5.195312 24.203125 -5.3125 C 24.640625 -5.425781 25.0625 -5.628906 25.46875 -5.921875 Z M 11.25 -22.296875 L 8.78125 -22.296875 L 8.78125 -15.5 L 11.203125 -15.5 C 13.140625 -15.5 14.53125 -15.773438 15.375 -16.328125 C 16.226562 -16.878906 16.65625 -17.75 16.65625 -18.9375 C 16.65625 -20.125 16.175781 -20.976562 15.21875 -21.5 C 14.269531 -22.03125 12.945312 -22.296875 11.25 -22.296875 Z M 11.25 -22.296875 "/></g></g></g><g fill="#f6f3f1" fill-opacity="1"><g transform="translate(194.50867, 188.710697)"><g><path d="M 21.375 -22 L 8.78125 -22 L 8.78125 -16.546875 L 20.5625 -16.546875 L 20.5625 -11.09375 L 8.78125 -11.09375 L 8.78125 -5.453125 L 21.765625 -5.453125 L 21.375 0 L 2.59375 0 L 2.59375 -27.453125 L 21.375 -27.453125 Z M 21.375 -22 "/></g></g></g><g fill="#f6f3f1" fill-opacity="1"><g transform="translate(226.554515, 188.710697)"><g><path d="M 16.234375 -14.921875 L 27.953125 -14.921875 L 27.953125 0 L 22.96875 0 L 22.5 -2.546875 C 21.625 -1.492188 20.492188 -0.738281 19.109375 -0.28125 C 17.734375 0.164062 16.285156 0.390625 14.765625 0.390625 C 12.035156 0.390625 9.671875 -0.148438 7.671875 -1.234375 C 5.671875 -2.316406 4.125 -3.867188 3.03125 -5.890625 C 1.9375 -7.910156 1.390625 -10.34375 1.390625 -13.1875 C 1.390625 -16.070312 2.015625 -18.613281 3.265625 -20.8125 C 4.515625 -23.019531 6.285156 -24.738281 8.578125 -25.96875 C 10.867188 -27.207031 13.5625 -27.828125 16.65625 -27.828125 C 19.257812 -27.828125 21.457031 -27.367188 23.25 -26.453125 C 25.039062 -25.546875 26.539062 -24.160156 27.75 -22.296875 L 22.921875 -18.78125 C 22.273438 -19.945312 21.382812 -20.789062 20.25 -21.3125 C 19.125 -21.84375 17.925781 -22.109375 16.65625 -22.109375 C 14.851562 -22.109375 13.304688 -21.738281 12.015625 -21 C 10.734375 -20.269531 9.738281 -19.238281 9.03125 -17.90625 C 8.320312 -16.582031 7.96875 -15.046875 7.96875 -13.296875 C 7.96875 -10.742188 8.632812 -8.769531 9.96875 -7.375 C 11.3125 -5.988281 13.15625 -5.296875 15.5 -5.296875 C 16.425781 -5.296875 17.351562 -5.457031 18.28125 -5.78125 C 19.207031 -6.101562 20 -6.597656 20.65625 -7.265625 C 21.3125 -7.929688 21.707031 -8.769531 21.84375 -9.78125 L 16.234375 -9.78125 Z M 16.234375 -14.921875 "/></g></g></g><g fill="#f6f3f1" fill-opacity="1"><g transform="translate(265.906143, 188.710697)"><g><path d="M 2.59375 0 L 2.59375 -27.453125 L 8.890625 -27.453125 L 8.890625 0 Z M 2.59375 0 "/></g></g></g><g fill="#f6f3f1" fill-opacity="1"><g transform="translate(287.051288, 188.710697)"><g><path d="M 20.375 -27.453125 L 26.4375 -27.453125 L 26.4375 0 L 20.828125 0 L 8.65625 -17.046875 L 8.65625 0 L 2.59375 0 L 2.59375 -27.453125 L 8.1875 -27.453125 L 20.375 -10.40625 Z M 20.375 -27.453125 "/></g></g></g><g fill="#f6f3f1" fill-opacity="1"><g transform="translate(325.745782, 188.710697)"><g><path d="M -0.921875 0 L 10.984375 -27.453125 L 16.28125 -27.453125 L 27.71875 0 L 21.296875 0 L 19.09375 -5.609375 L 7.765625 -5.609375 L 5.484375 0 Z M 9.9375 -10.859375 L 17.015625 -10.859375 L 13.53125 -19.71875 Z M 9.9375 -10.859375 "/></g></g></g></svg>